<?xml version="1.0" encoding="utf-8"?>
<!-- Generator: Adobe Illustrator 16.0.3, SVG Export Plug-In . SVG Version: 6.00 Build 0)  -->
<!DOCTYPE svg PUBLIC "-//W3C//DTD SVG 1.1//EN" "http://www.w3.org/Graphics/SVG/1.1/DTD/svg11.dtd">
<svg version="1.1" id="Layer_1" xmlns="http://www.w3.org/2000/svg" xmlns:xlink="http://www.w3.org/1999/xlink" x="0px" y="0px"
	 width="500px" height="500px" viewBox="0 0 500 500" enable-background="new 0 0 500 500" xml:space="preserve">
<g>
	<path d="M467.54,274.401C115.163,687.448,35.826-425.14,250.137,190.034c214.313,615.175,37.093-481.595,14.426,133.581
		c-22.667,615.176,207.099-611.659,235.949-119.519c28.85,492.14-671.785-295.285-461.595,147.642"/>
	<path opacity="0.2" fill="none" stroke="#000000" stroke-width="1.2352" stroke-miterlimit="10" d="M467.54,274.401
		C115.163,687.448,35.826-425.14,250.137,190.034c214.313,615.175,37.093-481.595,14.426,133.581
		c-22.667,615.176,207.099-611.659,235.949-119.519c28.85,492.14-671.785-295.285-461.595,147.642"/>
	<path opacity="0.25" fill="none" stroke="#666666" stroke-width="7.4109" stroke-linecap="round" stroke-linejoin="round" d="
		M467.54,274.401C115.163,687.448,35.826-425.14,250.137,190.034c214.313,615.175,37.093-481.595,14.426,133.581
		c-22.667,615.176,207.099-611.659,235.949-119.519c28.85,492.14-671.785-295.285-461.595,147.642"/>
	<path opacity="0.3" fill="none" stroke="#4D4D4D" stroke-width="6.1758" stroke-linecap="round" stroke-linejoin="round" d="
		M467.54,274.401C115.163,687.448,35.826-425.14,250.137,190.034c214.313,615.175,37.093-481.595,14.426,133.581
		c-22.667,615.176,207.099-611.659,235.949-119.519c28.85,492.14-671.785-295.285-461.595,147.642"/>
	<path fill="none" stroke="#000000" stroke-width="4.9406" stroke-linecap="round" stroke-linejoin="round" d="M467.54,274.401
		C115.163,687.448,35.826-425.14,250.137,190.034c214.313,615.175,37.093-481.595,14.426,133.581
		c-22.667,615.176,207.099-611.659,235.949-119.519c28.85,492.14-671.785-295.285-461.595,147.642"/>
	<path fill="none" stroke="#1A1A1A" stroke-width="4.0142" stroke-linecap="round" stroke-linejoin="round" d="M467.54,274.401
		C115.163,687.448,35.826-425.14,250.137,190.034c214.313,615.175,37.093-481.595,14.426,133.581
		c-22.667,615.176,207.099-611.659,235.949-119.519c28.85,492.14-671.785-295.285-461.595,147.642"/>
	<path fill="none" stroke="#333333" stroke-width="3.0879" stroke-linecap="round" stroke-linejoin="round" d="M467.54,274.401
		C115.163,687.448,35.826-425.14,250.137,190.034c214.313,615.175,37.093-481.595,14.426,133.581
		c-22.667,615.176,207.099-611.659,235.949-119.519c28.85,492.14-671.785-295.285-461.595,147.642"/>
	<path fill="none" stroke="#808080" stroke-width="2.038" stroke-linecap="round" stroke-linejoin="round" d="M467.54,274.401
		C115.163,687.448,35.826-425.14,250.137,190.034c214.313,615.175,37.093-481.595,14.426,133.581
		c-22.667,615.176,207.099-611.659,235.949-119.519c28.85,492.14-671.785-295.285-461.595,147.642"/>
	<path fill="none" stroke="#999999" stroke-width="0.8028" stroke-linecap="round" stroke-linejoin="round" d="M467.54,274.401
		C115.163,687.448,35.826-425.14,250.137,190.034c214.313,615.175,37.093-481.595,14.426,133.581
		c-22.667,615.176,207.099-611.659,235.949-119.519c28.85,492.14-671.785-295.285-461.595,147.642"/>
</g>
</svg>
