<svg xmlns="http://www.w3.org/2000/svg" width="500" height="500" viewBox="0 0 500 500"><path d="M467.54 274.4C115.163 687.45 35.826-425.14 250.137 190.035 464.45 805.21 287.23-291.56 264.563 323.615c-22.667 615.176 207.1-611.66 235.95-119.52 28.85 492.14-671.786-295.284-461.596 147.643"/><path opacity=".2" fill="none" stroke="#000" stroke-width="1.235" stroke-miterlimit="10" d="M467.54 274.4C115.163 687.45 35.826-425.14 250.137 190.035 464.45 805.21 287.23-291.56 264.563 323.615c-22.667 615.176 207.1-611.66 235.95-119.52 28.85 492.14-671.786-295.284-461.596 147.643"/><path opacity=".25" fill="none" stroke="#666" stroke-width="7.411" stroke-linecap="round" stroke-linejoin="round" d="M467.54 274.4C115.163 687.45 35.826-425.14 250.137 190.035 464.45 805.21 287.23-291.56 264.563 323.615c-22.667 615.176 207.1-611.66 235.95-119.52 28.85 492.14-671.786-295.284-461.596 147.643"/><path opacity=".3" fill="none" stroke="#4D4D4D" stroke-width="6.176" stroke-linecap="round" stroke-linejoin="round" d="M467.54 274.4C115.163 687.45 35.826-425.14 250.137 190.035 464.45 805.21 287.23-291.56 264.563 323.615c-22.667 615.176 207.1-611.66 235.95-119.52 28.85 492.14-671.786-295.284-461.596 147.643"/><path fill="none" stroke="#000" stroke-width="4.941" stroke-linecap="round" stroke-linejoin="round" d="M467.54 274.4C115.163 687.45 35.826-425.14 250.137 190.035 464.45 805.21 287.23-291.56 264.563 323.615c-22.667 615.176 207.1-611.66 235.95-119.52 28.85 492.14-671.786-295.284-461.596 147.643"/><path fill="none" stroke="#1A1A1A" stroke-width="4.014" stroke-linecap="round" stroke-linejoin="round" d="M467.54 274.4C115.163 687.45 35.826-425.14 250.137 190.035 464.45 805.21 287.23-291.56 264.563 323.615c-22.667 615.176 207.1-611.66 235.95-119.52 28.85 492.14-671.786-295.284-461.596 147.643"/><path fill="none" stroke="#333" stroke-width="3.088" stroke-linecap="round" stroke-linejoin="round" d="M467.54 274.4C115.163 687.45 35.826-425.14 250.137 190.035 464.45 805.21 287.23-291.56 264.563 323.615c-22.667 615.176 207.1-611.66 235.95-119.52 28.85 492.14-671.786-295.284-461.596 147.643"/><path fill="none" stroke="gray" stroke-width="2.038" stroke-linecap="round" stroke-linejoin="round" d="M467.54 274.4C115.163 687.45 35.826-425.14 250.137 190.035 464.45 805.21 287.23-291.56 264.563 323.615c-22.667 615.176 207.1-611.66 235.95-119.52 28.85 492.14-671.786-295.284-461.596 147.643"/><path fill="none" stroke="#999" stroke-width=".803" stroke-linecap="round" stroke-linejoin="round" d="M467.54 274.4C115.163 687.45 35.826-425.14 250.137 190.035 464.45 805.21 287.23-291.56 264.563 323.615c-22.667 615.176 207.1-611.66 235.95-119.52 28.85 492.14-671.786-295.284-461.596 147.643"/></svg>