<svg version="1" xmlns="http://www.w3.org/2000/svg" width="2838.667" height="666.667" viewBox="0 0 2129.000000 500.000000"><path d="M82.5 22.1c-20.2.9-39.7 2.5-55.5 4.5-17.4 2.3-15.6.4-14.8 15.2 1.8 32.9 7.9 150.1 9.3 178.7 1.2 25.3 9.5 233.1 9.5 238.2 0 1 16.1 1.3 77.3 1.3h77.4l1.1-32.7c.7-18.1 1.5-37.1 1.8-42.4l.6-9.6 13.1-.7c64.2-3.2 114.1-29.1 144.8-75 23.7-35.3 32.9-84.8 24.8-133.6-8.7-52.4-39.3-91.6-91.2-117-30.4-14.9-67.2-24-109.7-27-16.3-1.1-62.7-1.1-88.5.1zm144.9 183.4c8.5 2.2 17.1 7.1 21.6 12.3 6 6.8 8.3 13.7 8.8 26.8.7 18.1-3.5 30-13.9 39.9-6.3 6.1-16.5 11.4-26.4 14-6.3 1.6-25.2 4.1-26 3.4-.2-.2.3-21.1 1-46.4.8-25.3 1.5-47.2 1.5-48.7 0-2.1.6-2.8 2.8-3.2 5.1-.9 24.7.3 30.6 1.9zM1849 21.6c-34.4 1.8-48.8 2.8-69 4.5-12.9 1-25.3 2.2-27.5 2.5l-4 .6 1.7 29.1c4.6 77.9 7.1 129.4 9.8 199.2 1.1 28.6 2.9 73.1 4 99 1.1 25.8 2.5 58.2 3 72 .6 13.7 1.3 26.5 1.6 28.2l.5 3.3h157.6l.8-30.8c.4-16.9 1-39 1.4-49.2l.6-18.5 13.6 26.5c7.5 14.6 16.2 30.9 19.3 36.2 5.5 9.6 28.6 43.6 37.4 55.3 2.5 3.3 4.6 6.1 4.7 6.3.1.1 10.7-4.9 23.6-11.2 25-12.1 49.2-23 75.9-34.2l16.5-6.8-23.1-23.1c-22.8-22.8-32.2-33.7-56.7-66.5l-8.5-11.4 10.9-5.6c15.3-7.7 27.1-16.4 39.2-28.9 30.1-31.2 44.3-70.1 42.3-116.2-4-94.4-62.4-145.4-181.6-158.5-13.8-1.5-77.2-2.7-94-1.8zm109.5 185.3c22.3 4.6 35.8 17.5 38.5 36.8 1.3 9.6-.1 19.7-4 27.8-7.5 15.8-29 28-53 30.1l-8 .7.5-30.4c.3-16.7.8-38.6 1.1-48.7l.6-18.2h7.7c4.2 0 11.7.9 16.6 1.9zM395.7 64.7c5.3 86.2 6.7 118.6 12.5 276.6l4.3 118.7 125.4-.2 125.5-.3 5.7-25.5c3.1-14 7.6-32.9 9.8-41.9 2.3-9 4.1-16.5 3.9-16.6-.2-.2-6.6 1-14.3 2.6-14 2.9-31.6 4.3-81.9 6.5l-15.9.7.7-10.9c.3-6 .8-17.2 1.1-24.9.3-7.7.8-16.8 1.1-20.3l.6-6.2h18c19.2 0 35.1 1.2 54.3 4 6.6.9 12.1 1.6 12.3 1.4.2-.1 1.6-7.8 3.2-17.1 1.6-9.2 5.3-26.6 8.3-38.5l5.5-21.8-50.2.7-50.1.6 2-26.6c1.1-14.6 2.4-26.9 2.8-27.3 1.9-1.9 74 4.5 92.5 8.2 1.7.4 3.2.4 3.2.1 0-.3 2.7-40.2 6-88.7s6-88.3 6-88.6c0-.2-66.3-.4-147.3-.4H393.5l2.2 35.7zm309.7-23.5c.4 6.8 2 46.2 3.7 87.7 1.6 41.5 3.1 75.6 3.2 75.8.2.2 8.6-.6 18.6-1.7 20.6-2.2 64.1-4.4 65.1-3.3 1.7 2 9.8 141.9 13 225.3.6 15.7 1.3 30 1.6 31.7l.5 3.3H946l.4-2.2c.5-2.2 2.4-35.7 8.1-141.8 2.2-40 5.2-85.4 7.1-109.3l.7-7.7h3.1c15.1.1 51.2 2.3 64 3.9 8.8 1.1 16.1 1.9 16.2 1.8 0-.1 1.7-37.1 3.8-82.2 2-45.1 3.8-84.6 4.2-87.8l.5-5.7H704.8l.6 12.2zm359 0c.4 6.8 2 46.2 3.7 87.7 1.6 41.5 3.1 75.6 3.2 75.8.2.2 8.6-.6 18.6-1.7 20.6-2.2 64.1-4.4 65.1-3.3 1.7 2 9.8 141.9 13 225.3.6 15.7 1.3 30 1.6 31.7l.5 3.3H1305l.4-2.2c.5-2.2 2.4-35.7 8.1-141.8 2.2-40 5.2-85.4 7.1-109.3l.7-7.7h3.1c15.1.1 51.2 2.3 64 3.9 8.8 1.1 16.1 1.9 16.2 1.8 0-.1 1.7-37.1 3.8-82.2 2-45.1 3.8-84.6 4.2-87.8l.5-5.7h-349.3l.6 12.2zm367.3 23.5c5.3 86.2 6.7 118.6 12.5 276.6l4.3 118.7 125.4-.2 125.5-.3 5.7-25.5c3.1-14 7.6-32.9 9.8-41.9 2.3-9 4.1-16.5 3.9-16.6-.2-.2-6.6 1-14.3 2.6-14 2.9-31.6 4.3-81.9 6.5l-15.9.7.7-10.9c.3-6 .8-17.2 1.1-24.9.3-7.7.8-16.8 1.1-20.3l.6-6.2h18c19.2 0 35.1 1.2 54.3 4 6.6.9 12.1 1.6 12.3 1.4.2-.1 1.6-7.8 3.2-17.1 1.6-9.2 5.3-26.6 8.3-38.5l5.5-21.8-50.2.7-50.1.6 2-26.6c1.1-14.6 2.4-26.9 2.8-27.3 1.9-1.9 74 4.5 92.5 8.2 1.7.4 3.2.4 3.2.1 0-.3 2.7-40.2 6-88.7s6-88.3 6-88.6c0-.2-66.3-.4-147.3-.4h-147.2l2.2 35.7z"/></svg>