<svg xmlns="http://www.w3.org/2000/svg" width="2838.666" height="666.667" viewBox="0 0 2838.666 666.667"><path d="M110 29.467c-26.934 1.2-52.934 3.333-74 6-23.2 3.066-20.8.533-19.733 20.266C18.667 99.6 26.8 255.867 28.667 294c1.6 33.733 12.666 310.8 12.666 317.6 0 1.333 21.467 1.733 103.066 1.733h103.2l1.466-43.6c.934-24.133 2-49.467 2.4-56.533l.8-12.8 17.467-.935c85.6-4.266 152.133-38.8 193.066-100 31.6-47.066 43.865-113.066 33.065-178.133-11.6-69.867-52.4-122.133-121.6-156-40.534-19.867-89.6-32-146.267-36-21.73-1.465-83.598-1.465-117.998.135zM303.2 274c11.333 2.934 22.8 9.467 28.8 16.4 8 9.066 11.066 18.267 11.732 35.733.934 24.134-4.666 40-18.533 53.2-8.4 8.133-22 15.2-35.2 18.666-8.4 2.133-33.6 5.466-34.667 4.533-.267-.267.4-28.134 1.333-61.866 1.067-33.734 2-62.934 2-64.934 0-2.8.8-3.733 3.733-4.267 6.8-1.2 32.933.4 40.8 2.534zM2465.332 28.8c-45.866 2.4-65.066 3.733-92 6-17.2 1.333-33.733 2.933-36.667 3.333l-5.333.8 2.267 38.8c6.133 103.867 9.467 172.533 13.066 265.6 1.467 38.133 3.867 97.467 5.334 132 1.467 34.4 3.333 77.6 4 96 .8 18.268 1.733 35.334 2.133 37.6l.667 4.4h210.134l1.066-41.066c.533-22.533 1.333-52 1.866-65.6l.8-24.668 18.134 35.333c10 19.467 21.6 41.2 25.733 48.268 7.333 12.8 38.133 58.134 49.867 73.733 3.333 4.4 6.133 8.133 6.266 8.4.134.133 14.268-6.533 31.467-14.934 33.334-16.134 65.6-30.667 101.2-45.6l22-9.067-30.8-30.8c-30.4-30.4-42.934-44.935-75.6-88.667l-11.334-15.2 14.532-7.468c20.4-10.266 36.134-21.866 52.268-38.533 40.133-41.6 59.066-93.466 56.4-154.933-5.334-125.866-83.2-193.866-242.134-211.333-18.4-2-102.932-3.6-125.333-2.4zm146 247.067c29.733 6.133 47.733 23.333 51.333 49.067 1.734 12.8-.133 26.267-5.333 37.066-10 21.067-38.667 37.334-70.667 40.134l-10.666.933.666-40.533c.4-22.267 1.067-51.467 1.467-64.934l.8-24.267h10.267c5.6 0 15.6 1.2 22.133 2.534zM527.6 86.267c7.066 114.934 8.934 158.134 16.667 368.8L550 613.332l167.2-.268 167.333-.398 7.6-34C896.267 560 902.267 534.8 905.2 522.8c3.066-12 5.466-22 5.2-22.133-.268-.268-8.8 1.332-19.067 3.467-18.667 3.865-42.134 5.732-109.2 8.666l-21.2.934.934-14.533a3706 3706 0 0 0 1.467-33.2c.4-10.266 1.066-22.398 1.467-27.066l.8-8.266h24c25.6 0 46.8 1.6 72.4 5.332 8.8 1.2 16.134 2.135 16.4 1.867.267-.133 2.134-10.4 4.267-22.8 2.134-12.267 7.066-35.467 11.066-51.333l7.334-29.066-66.934.933-66.8.8L770 300.935c1.466-19.467 3.2-35.867 3.732-36.4 2.534-2.534 98.667 6 123.334 10.933 2.267.533 4.267.533 4.267.133s3.6-53.6 8-118.267 8-117.733 8-118.133c0-.267-88.4-.533-196.4-.533H524.666l2.934 47.6zm412.933-31.333c.533 9.066 2.666 61.6 4.934 116.933 2.133 55.333 4.133 100.8 4.267 101.067.267.267 11.466-.8 24.8-2.267 27.467-2.934 85.467-5.867 86.8-4.4 2.267 2.667 13.066 189.2 17.333 300.4.8 20.935 1.733 40 2.134 42.267l.668 4.4h179.866l.533-2.934c.667-2.934 3.2-47.6 10.8-189.066 2.934-53.334 6.934-113.867 9.467-145.733l.934-10.266h4.133c20.135.133 68.27 3.067 85.335 5.2 11.733 1.466 21.467 2.533 21.6 2.4 0-.133 2.267-49.467 5.066-109.6 2.668-60.133 5.068-112.8 5.602-117.067l.666-7.6H939.734l.8 16.267zm478.666 0c.533 9.066 2.666 61.6 4.933 116.933 2.134 55.333 4.134 100.8 4.267 101.067.267.267 11.467-.8 24.8-2.267 27.467-2.934 85.467-5.867 86.8-4.4 2.267 2.667 13.067 189.2 17.334 300.4.8 20.935 1.733 40 2.133 42.267l.667 4.4H1740l.533-2.934c.666-2.934 3.2-47.6 10.8-189.066 2.934-53.334 6.934-113.867 9.467-145.733l.933-10.266h4.134c20.134.133 68.267 3.067 85.333 5.2 11.733 1.466 21.467 2.533 21.6 2.4 0-.133 2.268-49.467 5.067-109.6 2.667-60.133 5.066-112.8 5.6-117.067l.667-7.6H1418.4l.8 16.267zm489.733 31.333c7.067 114.933 8.933 158.133 16.667 368.8l5.733 158.267 167.2-.268 167.333-.398 7.6-34C2277.6 560 2283.6 534.8 2286.534 522.8c3.066-12 5.467-22 5.2-22.133-.267-.268-8.8 1.332-19.067 3.467-18.666 3.865-42.133 5.732-109.2 8.666l-21.2.934.934-14.533c.4-8 1.067-22.933 1.467-33.2.4-10.266 1.066-22.398 1.467-27.066l.8-8.266h24c25.6 0 46.8 1.6 72.4 5.332 8.8 1.2 16.134 2.135 16.4 1.867.267-.133 2.133-10.4 4.267-22.8 2.134-12.267 7.067-35.467 11.067-51.333l7.333-29.066-66.933.933-66.8.8 2.666-35.465c1.467-19.467 3.2-35.867 3.733-36.4 2.533-2.534 98.667 6 123.334 10.933 2.266.533 4.266.533 4.266.133s3.6-53.6 8-118.266c4.4-64.667 8-117.733 8-118.133 0-.266-88.4-.532-196.4-.532H1906l2.933 47.6z"/></svg>