<?xml version="1.0" standalone="no"?>
<!DOCTYPE svg PUBLIC "-//W3C//DTD SVG 20010904//EN"
 "http://www.w3.org/TR/2001/REC-SVG-20010904/DTD/svg10.dtd">
<svg version="1.0" xmlns="http://www.w3.org/2000/svg"
 width="311.000000pt" height="500.000000pt" viewBox="0 0 311.000000 500.000000"
 preserveAspectRatio="xMidYMid meet">
<metadata>
Created by potrace 1.12, written by Peter Selinger 2001-2015
</metadata>
<g transform="translate(0.000000,500.000000) scale(0.100000,-0.100000)"
fill="#000000" stroke="none">
<path d="M1430 4990 c-92 -9 -244 -40 -355 -72 -91 -26 -358 -160 -413 -206
-24 -21 -58 -46 -76 -57 -54 -33 -188 -136 -240 -185 -88 -82 -157 -207 -221
-402 -25 -76 -45 -147 -45 -158 0 -11 -4 -28 -9 -38 -15 -28 -39 -123 -50
-192 -16 -96 -13 -351 4 -455 19 -117 38 -202 48 -211 4 -4 7 -18 7 -31 0 -31
40 -152 78 -235 16 -35 36 -82 45 -105 16 -40 25 -64 61 -160 8 -21 24 -62 35
-90 46 -112 69 -336 49 -463 -3 -19 -9 -71 -13 -116 l-7 -81 53 -55 c83 -85
93 -87 179 -51 19 8 41 18 49 22 22 11 168 -43 210 -77 30 -25 74 -107 69
-131 -1 -3 2 -44 7 -89 6 -65 12 -88 28 -103 27 -25 40 -20 48 20 8 39 26 61
33 40 2 -8 9 -40 16 -72 15 -72 43 -107 91 -111 20 -2 41 -1 47 3 5 3 22 34
36 69 23 54 25 68 16 100 -15 54 -13 62 15 62 33 0 37 -21 32 -171 -3 -68 -1
-131 4 -140 9 -18 67 -33 91 -24 9 4 20 17 27 31 9 21 17 25 48 22 35 -3 37
-5 52 -62 16 -60 16 -60 65 -72 51 -13 66 -11 66 9 0 28 36 96 54 101 29 7 36
-1 36 -42 0 -20 6 -48 13 -62 10 -21 19 -24 47 -21 68 6 70 11 70 125 0 112 2
116 56 116 19 0 29 -8 40 -38 46 -110 68 -130 105 -96 16 14 19 31 19 98 0
116 3 122 74 158 90 44 118 69 150 131 50 96 58 101 204 109 190 11 211 14
256 45 22 15 50 32 61 38 28 14 73 109 87 183 10 56 9 69 -8 115 -17 45 -19
76 -17 242 1 152 4 196 17 220 9 17 16 38 16 47 0 9 4 19 9 22 5 3 11 16 14
28 5 21 31 93 87 238 11 30 32 89 47 130 14 41 32 87 39 103 24 45 28 232 10
397 -18 160 -43 336 -56 390 -31 126 -91 320 -115 375 -7 17 -17 41 -22 55 -5
14 -50 106 -99 205 -88 177 -90 181 -189 281 -82 82 -210 184 -231 184 -3 0
-31 13 -62 28 -31 15 -86 36 -122 46 -36 10 -73 22 -82 27 -10 5 -30 9 -45 9
-16 0 -73 7 -128 15 -224 35 -392 46 -515 35z m-370 -1982 c41 -9 89 -19 105
-23 17 -3 43 -8 60 -12 64 -13 117 -73 163 -183 41 -101 40 -122 -8 -191 -23
-34 -51 -83 -61 -110 -26 -67 -60 -119 -103 -157 -36 -31 -39 -32 -136 -32
-86 0 -108 4 -174 30 -82 33 -98 33 -217 -1 -42 -11 -50 -11 -73 4 -24 16 -26
22 -26 97 0 75 -11 155 -30 210 -34 104 -42 146 -38 204 3 34 11 71 18 82 17
27 95 74 123 74 12 1 32 6 45 13 32 18 258 15 352 -5z m1331 -57 c30 -11 80
-23 110 -27 29 -4 61 -8 69 -10 8 -1 18 -3 21 -3 3 -1 15 -10 28 -22 21 -20
22 -28 20 -143 -1 -66 1 -161 5 -211 5 -66 3 -97 -6 -114 -20 -37 -187 -145
-262 -169 -76 -25 -136 -27 -219 -7 -53 12 -67 22 -170 121 -158 152 -159 154
-188 277 l-20 81 22 42 c25 47 77 82 159 109 30 9 73 29 95 43 75 48 123 62
205 57 41 -2 100 -13 131 -24z m-737 -489 c10 -20 25 -49 32 -64 8 -14 14 -31
14 -38 0 -15 80 -139 137 -211 56 -72 72 -139 56 -234 -6 -36 -17 -73 -24 -81
-22 -27 -115 2 -171 54 -21 19 -28 38 -34 81 -6 51 -25 91 -44 91 -4 0 -15
-21 -25 -46 -13 -33 -15 -59 -11 -98 l7 -53 -46 -42 c-25 -23 -49 -41 -53 -39
-4 2 -37 18 -74 35 -39 19 -69 40 -73 52 -5 18 10 115 36 228 5 24 34 83 64
133 30 49 62 114 70 143 9 28 21 68 27 89 20 68 79 68 112 0z"/>
<path d="M708 1392 c-36 -43 -39 -66 -34 -217 2 -83 7 -189 10 -236 5 -76 3
-93 -19 -149 -17 -42 -25 -84 -25 -123 0 -53 5 -67 53 -145 72 -120 141 -186
267 -257 58 -33 128 -70 155 -83 28 -12 82 -39 120 -59 230 -118 226 -117 310
-121 85 -4 140 12 207 60 17 11 67 40 112 64 71 36 203 119 298 185 15 10 30
19 33 19 12 0 123 90 149 120 38 46 45 87 51 305 3 110 12 263 21 340 23 207
23 259 2 263 -48 9 -105 -118 -168 -376 -11 -44 -17 -49 -40 -34 -31 19 -57
14 -80 -15 -23 -29 -23 -43 0 -124 13 -44 12 -47 -15 -82 -15 -21 -33 -37 -39
-37 -12 0 -46 95 -46 128 0 10 -6 26 -13 35 -11 16 -14 16 -44 -2 -23 -15 -32
-28 -35 -53 -4 -41 -26 -47 -60 -15 -31 29 -84 39 -99 20 -7 -7 -22 -41 -34
-75 -35 -98 -75 -104 -105 -18 -12 34 -26 50 -63 73 -26 16 -54 27 -62 24 -7
-3 -16 -27 -20 -54 -9 -70 -11 -73 -43 -73 -37 0 -50 15 -71 87 l-17 58 -46 3
c-43 3 -46 1 -62 -33 -9 -19 -21 -35 -26 -35 -8 0 -39 61 -68 133 -9 21 -18
27 -42 27 -39 0 -67 -38 -50 -70 19 -36 9 -83 -21 -94 -15 -5 -35 -6 -44 -2
-16 6 -17 17 -12 103 7 120 0 143 -48 143 -29 0 -36 -4 -41 -27 -4 -15 -2 -57
5 -93 17 -86 18 -112 5 -117 -16 -5 -50 65 -67 142 -20 86 -47 299 -47 368 0
54 -20 96 -57 122 -18 13 -22 12 -35 -3z"/>
</g>
</svg>
