<svg version="1" xmlns="http://www.w3.org/2000/svg" width="346.667" height="346.667" viewBox="0 0 260.000000 260.000000"><path d="M198.8 4.4c-9.6 4.2-20.3 10.8-32.8 20.2-16.9 12.7-26.8 22.2-40.2 38.4l-3.6 4.4 7.9-26.8c4.3-14.8 7.9-27.8 7.9-28.8 0-1.7-.5-1.9-4-1.3l-4 .7 1-2.7c1.7-4.5 1.3-5.5-2.2-5.5-6.9 0-41.5 13.2-85.4 32.6L24 44.2l-1.4 4.6c-6.5 22.4-7.8 27.3-7.3 27.8.3.4 2.6 0 5-.9l4.4-1.5-1.1 3.9c-.5 2.1-.7 4.2-.3 4.6.6.5 29.4-8.3 40.6-12.5 1-.4 1.2-.1.8.9-21.2 48.4-50.3 136.6-56.3 170.4-2 11.2-2.1 10.9 2.6 10.2l4-.5v3.9c0 2.1.5 3.9 1 3.9.6 0 14.7-5.2 31.4-11.6l30.3-11.7 2.2-7.1c8.7-27.7 29.1-69.4 55.4-112.6 8.6-14.2 37.3-57.7 38.6-58.4 2.1-1.3 10.8 24 13.5 39.4 2.1 11.2 3.8 34.3 3 40.1l-.6 4.7-5.2-1.4c-10.1-2.7-37.5-8.4-40.5-8.4-2.9 0-3.9 1.2-16.1 19.6-7.2 10.7-13 20.3-12.8 21.1.2.9 1.9 2.2 3.8 2.8 2.3.8 3.6 1.9 3.8 3.3.3 1.6 1.9 2.7 6.4 4.4 4.2 1.5 8.7 4.4 14.2 9 11.1 9.4 16.9 12 27.6 12.6l8.5.4 19-19.3c33.5-34.1 43.3-50.4 49.7-82.4 1.9-9.3 2.2-14.3 2.2-32 0-20-.1-21.4-2.7-29.8-3.4-11.1-9.1-23-12-25.4-1.2-1-3-3-4-4.5-.9-1.5-5-4.5-9-6.8-9.3-5.1-13.3-5.2-23.9-.6z"/></svg>